<mxfile host="65bd71144e">
    <diagram id="Vcby-pPesS-RJyGnUZok" name="第 1 页">
        <mxGraphModel dx="1036" dy="595" grid="1" gridSize="10" guides="1" tooltips="1" connect="1" arrows="1" fold="1" page="1" pageScale="1" pageWidth="1654" pageHeight="2336" math="0" shadow="0">
            <root>
                <mxCell id="0"/>
                <mxCell id="1" parent="0"/>
                <mxCell id="71" style="edgeStyle=orthogonalEdgeStyle;rounded=1;orthogonalLoop=1;jettySize=auto;html=1;entryX=0;entryY=0.5;entryDx=0;entryDy=0;strokeColor=#A7BFC9;strokeWidth=2;endArrow=block;endFill=1;" parent="1" source="64" target="67" edge="1">
                    <mxGeometry relative="1" as="geometry"/>
                </mxCell>
                <mxCell id="112" style="orthogonalLoop=1;jettySize=auto;html=1;exitX=1;exitY=1;exitDx=0;exitDy=0;entryX=0;entryY=0;entryDx=0;entryDy=0;rounded=1;endArrow=block;endFill=1;strokeWidth=2;strokeColor=#A7BFC9;" edge="1" parent="1" source="64" target="87">
                    <mxGeometry relative="1" as="geometry"/>
                </mxCell>
                <mxCell id="64" value="source 1" style="rounded=1;whiteSpace=wrap;html=1;arcSize=50;fillColor=#EDF2F4;strokeColor=#FFFFFF;strokeWidth=2;fontStyle=1" parent="1" vertex="1">
                    <mxGeometry x="80" y="140" width="110" height="40" as="geometry"/>
                </mxCell>
                <mxCell id="66" value="" style="ellipse;whiteSpace=wrap;html=1;aspect=fixed;fillColor=#6E96A6;strokeColor=#FFFFFF;strokeWidth=2;" parent="1" vertex="1">
                    <mxGeometry x="232" y="145" width="30" height="30" as="geometry"/>
                </mxCell>
                <mxCell id="72" style="edgeStyle=orthogonalEdgeStyle;rounded=1;orthogonalLoop=1;jettySize=auto;html=1;entryX=0;entryY=0.5;entryDx=0;entryDy=0;strokeColor=#A7BFC9;strokeWidth=2;endArrow=block;endFill=1;" parent="1" target="70" edge="1">
                    <mxGeometry relative="1" as="geometry">
                        <mxPoint x="480" y="160" as="sourcePoint"/>
                    </mxGeometry>
                </mxCell>
                <mxCell id="67" value="Subtask 1&amp;nbsp;&amp;nbsp;" style="rounded=0;whiteSpace=wrap;html=1;fillColor=#EDF2F4;strokeColor=#FFFFFF;strokeWidth=2;fontStyle=1;align=right;" parent="1" vertex="1">
                    <mxGeometry x="372" y="140" width="108" height="40" as="geometry"/>
                </mxCell>
                <mxCell id="69" value="" style="ellipse;whiteSpace=wrap;html=1;aspect=fixed;strokeColor=#FFFFFF;strokeWidth=2;fillColor=#FFD966;" parent="1" vertex="1">
                    <mxGeometry x="300" y="145" width="30" height="30" as="geometry"/>
                </mxCell>
                <mxCell id="73" style="edgeStyle=orthogonalEdgeStyle;rounded=1;orthogonalLoop=1;jettySize=auto;html=1;strokeColor=#A7BFC9;strokeWidth=2;endArrow=block;endFill=1;" parent="1" source="70" edge="1">
                    <mxGeometry relative="1" as="geometry">
                        <mxPoint x="590" y="160" as="targetPoint"/>
                    </mxGeometry>
                </mxCell>
                <mxCell id="70" value="" style="ellipse;whiteSpace=wrap;html=1;aspect=fixed;strokeColor=#FFFFFF;strokeWidth=2;fillColor=#6E96A6;" parent="1" vertex="1">
                    <mxGeometry x="520" y="145" width="30" height="30" as="geometry"/>
                </mxCell>
                <mxCell id="83" style="edgeStyle=orthogonalEdgeStyle;rounded=1;orthogonalLoop=1;jettySize=auto;html=1;entryX=0;entryY=0.5;entryDx=0;entryDy=0;strokeColor=#A7BFC9;strokeWidth=2;endArrow=block;endFill=1;" parent="1" source="84" target="87" edge="1">
                    <mxGeometry relative="1" as="geometry"/>
                </mxCell>
                <mxCell id="113" style="edgeStyle=none;rounded=1;orthogonalLoop=1;jettySize=auto;html=1;exitX=1;exitY=0;exitDx=0;exitDy=0;entryX=0;entryY=1;entryDx=0;entryDy=0;endArrow=block;endFill=1;strokeColor=#A7BFC9;strokeWidth=2;" edge="1" parent="1" source="84" target="67">
                    <mxGeometry relative="1" as="geometry"/>
                </mxCell>
                <mxCell id="84" value="source 2" style="rounded=1;whiteSpace=wrap;html=1;arcSize=50;fillColor=#EDF2F4;strokeColor=#FFFFFF;strokeWidth=2;fontStyle=1" parent="1" vertex="1">
                    <mxGeometry x="80" y="290" width="110" height="40" as="geometry"/>
                </mxCell>
                <mxCell id="85" value="" style="ellipse;whiteSpace=wrap;html=1;aspect=fixed;strokeColor=#FFFFFF;strokeWidth=2;fillColor=#345253;" parent="1" vertex="1">
                    <mxGeometry x="232" y="295" width="30" height="30" as="geometry"/>
                </mxCell>
                <mxCell id="86" style="edgeStyle=orthogonalEdgeStyle;rounded=1;orthogonalLoop=1;jettySize=auto;html=1;entryX=0;entryY=0.5;entryDx=0;entryDy=0;strokeColor=#A7BFC9;strokeWidth=2;endArrow=block;endFill=1;exitX=1;exitY=0.5;exitDx=0;exitDy=0;" parent="1" source="87" target="91" edge="1">
                    <mxGeometry relative="1" as="geometry">
                        <mxPoint x="490" y="310" as="sourcePoint"/>
                    </mxGeometry>
                </mxCell>
                <mxCell id="87" value="&lt;span&gt;Subtask 2&amp;nbsp;&amp;nbsp;&lt;/span&gt;" style="rounded=0;whiteSpace=wrap;html=1;fillColor=#EDF2F4;strokeColor=#FFFFFF;strokeWidth=2;fontStyle=1;align=right;" parent="1" vertex="1">
                    <mxGeometry x="372" y="290" width="108" height="40" as="geometry"/>
                </mxCell>
                <mxCell id="89" value="" style="ellipse;whiteSpace=wrap;html=1;aspect=fixed;strokeColor=#FFFFFF;strokeWidth=2;fillColor=#B3B3B3;" parent="1" vertex="1">
                    <mxGeometry x="300" y="295" width="30" height="30" as="geometry"/>
                </mxCell>
                <mxCell id="90" style="edgeStyle=orthogonalEdgeStyle;rounded=1;orthogonalLoop=1;jettySize=auto;html=1;strokeColor=#A7BFC9;strokeWidth=2;endArrow=block;endFill=1;" parent="1" source="91" edge="1">
                    <mxGeometry relative="1" as="geometry">
                        <mxPoint x="590" y="310" as="targetPoint"/>
                    </mxGeometry>
                </mxCell>
                <mxCell id="91" value="" style="ellipse;whiteSpace=wrap;html=1;aspect=fixed;strokeColor=#FFFFFF;strokeWidth=2;fillColor=#345253;" parent="1" vertex="1">
                    <mxGeometry x="520" y="295" width="30" height="30" as="geometry"/>
                </mxCell>
                <mxCell id="92" value="" style="shape=cylinder3;whiteSpace=wrap;html=1;boundedLbl=1;backgroundOutline=1;size=15;fillColor=#EDF2F4;strokeColor=#FFFFFF;strokeWidth=2;" parent="1" vertex="1">
                    <mxGeometry x="381" y="20" width="90" height="80" as="geometry"/>
                </mxCell>
                <mxCell id="93" value="" style="whiteSpace=wrap;html=1;aspect=fixed;strokeColor=#FFFFFF;strokeWidth=2;fillColor=#6E96A6;" parent="1" vertex="1">
                    <mxGeometry x="391" y="45" width="30" height="30" as="geometry"/>
                </mxCell>
                <mxCell id="94" value="" style="shape=cylinder3;whiteSpace=wrap;html=1;boundedLbl=1;backgroundOutline=1;size=15;fillColor=#EDF2F4;strokeColor=#FFFFFF;strokeWidth=2;" parent="1" vertex="1">
                    <mxGeometry x="381" y="370" width="90" height="80" as="geometry"/>
                </mxCell>
                <mxCell id="95" value="" style="whiteSpace=wrap;html=1;aspect=fixed;strokeColor=#FFFFFF;strokeWidth=2;fillColor=#B3B3B3;" parent="1" vertex="1">
                    <mxGeometry x="391" y="395" width="30" height="30" as="geometry"/>
                </mxCell>
                <mxCell id="114" value="" style="ellipse;whiteSpace=wrap;html=1;aspect=fixed;strokeColor=#FFFFFF;strokeWidth=2;fillColor=#B3B3B3;" vertex="1" parent="1">
                    <mxGeometry x="220" y="190" width="30" height="30" as="geometry"/>
                </mxCell>
                <mxCell id="115" value="" style="ellipse;whiteSpace=wrap;html=1;aspect=fixed;strokeColor=#FFFFFF;strokeWidth=2;fillColor=#FFD966;" vertex="1" parent="1">
                    <mxGeometry x="220" y="250" width="30" height="30" as="geometry"/>
                </mxCell>
                <mxCell id="117" value="" style="ellipse;whiteSpace=wrap;html=1;aspect=fixed;strokeColor=#FFFFFF;strokeWidth=2;fillColor=#6E96A6;" vertex="1" parent="1">
                    <mxGeometry x="313" y="190" width="30" height="30" as="geometry"/>
                </mxCell>
                <mxCell id="119" value="" style="ellipse;whiteSpace=wrap;html=1;aspect=fixed;strokeColor=#FFFFFF;strokeWidth=2;fillColor=#345253;" vertex="1" parent="1">
                    <mxGeometry x="313" y="250" width="30" height="30" as="geometry"/>
                </mxCell>
                <mxCell id="120" value="" style="whiteSpace=wrap;html=1;aspect=fixed;strokeColor=#FFFFFF;strokeWidth=2;fillColor=#FFD966;" vertex="1" parent="1">
                    <mxGeometry x="431" y="45" width="30" height="30" as="geometry"/>
                </mxCell>
                <mxCell id="121" value="" style="whiteSpace=wrap;html=1;aspect=fixed;strokeColor=#FFFFFF;strokeWidth=2;fillColor=#345253;" vertex="1" parent="1">
                    <mxGeometry x="431" y="395" width="30" height="30" as="geometry"/>
                </mxCell>
                <mxCell id="124" style="edgeStyle=none;rounded=1;orthogonalLoop=1;jettySize=auto;html=1;entryX=0.5;entryY=1;entryDx=0;entryDy=0;endArrow=block;endFill=1;strokeColor=#A7BFC9;strokeWidth=2;startArrow=block;startFill=1;" edge="1" parent="1" source="122" target="120">
                    <mxGeometry relative="1" as="geometry"/>
                </mxCell>
                <mxCell id="122" value="" style="ellipse;whiteSpace=wrap;html=1;aspect=fixed;strokeColor=#FFFFFF;strokeWidth=2;fillColor=#FFD966;" vertex="1" parent="1">
                    <mxGeometry x="382" y="145" width="30" height="30" as="geometry"/>
                </mxCell>
                <mxCell id="125" style="edgeStyle=none;rounded=1;orthogonalLoop=1;jettySize=auto;html=1;exitX=1;exitY=1;exitDx=0;exitDy=0;entryX=0.5;entryY=0;entryDx=0;entryDy=0;startArrow=block;startFill=1;endArrow=block;endFill=1;strokeColor=#A7BFC9;strokeWidth=2;" edge="1" parent="1" source="123" target="121">
                    <mxGeometry relative="1" as="geometry"/>
                </mxCell>
                <mxCell id="123" value="" style="ellipse;whiteSpace=wrap;html=1;aspect=fixed;strokeColor=#FFFFFF;strokeWidth=2;fillColor=#345253;" vertex="1" parent="1">
                    <mxGeometry x="382" y="295" width="30" height="30" as="geometry"/>
                </mxCell>
                <mxCell id="126" value="State access scoped&lt;br&gt;to key of current record" style="text;html=1;strokeColor=none;fillColor=none;align=center;verticalAlign=middle;whiteSpace=wrap;rounded=0;fontStyle=2" vertex="1" parent="1">
                    <mxGeometry x="421" y="100" width="199" height="20" as="geometry"/>
                </mxCell>
                <mxCell id="127" value="Records are partitioned&lt;br&gt;by color key" style="text;html=1;strokeColor=none;fillColor=none;align=center;verticalAlign=middle;whiteSpace=wrap;rounded=0;fontStyle=2" vertex="1" parent="1">
                    <mxGeometry x="183" y="340" width="199" height="20" as="geometry"/>
                </mxCell>
            </root>
        </mxGraphModel>
    </diagram>
</mxfile>